<svg width="462" height="496" viewBox="0 0 462 496" fill="none" xmlns="http://www.w3.org/2000/svg">
<g clip-path="url(#clip0_7081_184)">
<path d="M416.052 480.525C417.801 480.648 418.768 478.216 417.445 476.798L417.313 476.213C417.33 476.166 417.348 476.119 417.365 476.072C419.135 471.352 425.131 471.385 426.885 476.112C428.442 480.307 430.424 484.51 430.912 488.946C431.131 490.904 431.033 492.899 430.644 494.821C434.292 485.904 436.212 476.168 436.212 466.377C436.212 463.917 436.092 461.457 435.846 459.003C435.643 456.996 435.364 455.001 435.003 453.024C433.051 442.339 428.823 432.162 422.724 423.662C419.793 421.869 417.348 419.067 415.871 415.707C415.34 414.495 414.925 413.192 414.728 411.864C415.061 411.913 415.986 406.228 415.734 405.879C416.199 405.089 417.031 404.697 417.539 403.927C420.065 400.096 423.544 400.765 425.361 405.971C429.241 408.162 429.279 411.796 426.898 415.291C425.383 417.514 425.175 420.523 423.846 422.904C423.982 423.099 424.125 423.289 424.261 423.485C426.769 427.083 428.938 430.951 430.766 435.014C430.249 430.498 431.012 425.058 432.312 421.551C433.793 417.555 436.568 414.19 439.011 410.736C441.946 406.587 447.965 408.397 448.482 413.657C448.487 413.708 448.492 413.759 448.497 413.81C448.134 414.039 447.778 414.282 447.431 414.539C445.45 416.005 446.135 419.441 448.482 419.847L448.535 419.856C448.404 421.319 448.18 422.769 447.852 424.195C450.986 437.759 444.219 442.699 434.555 442.921C434.342 443.043 434.134 443.165 433.92 443.282C434.9 446.366 435.682 449.53 436.261 452.736C436.781 455.57 437.142 458.434 437.344 461.31C437.596 464.939 437.574 468.586 437.301 472.209L437.317 472.08C438.012 468.09 439.948 464.364 442.759 461.781C446.947 457.932 452.864 456.514 457.383 453.42C459.558 451.931 462.345 453.856 461.965 456.677L461.947 456.812C461.274 457.118 460.617 457.473 459.983 457.871C459.62 458.1 459.264 458.343 458.917 458.6C456.936 460.066 457.621 463.502 459.968 463.908L460.021 463.917C460.06 463.923 460.092 463.929 460.131 463.935C458.977 467.001 457.369 469.847 455.356 472.301C453.396 484.141 444.977 485.265 435.972 481.817H435.966C434.982 486.614 433.543 491.302 431.694 495.769H416.434C416.38 495.58 416.33 495.384 416.281 495.194C417.692 495.292 419.114 495.2 420.504 494.913C419.371 493.358 418.239 491.791 417.107 490.237C417.08 490.207 417.058 490.176 417.036 490.145C416.462 489.35 415.882 488.56 415.308 487.765L415.307 487.764C415.271 485.322 415.533 482.888 416.051 480.525L416.052 480.525V480.525Z" fill="#F2F2F2"/>
<path d="M135.284 494.873C135.284 495.498 135.733 496 136.292 496H460.874C461.432 496 461.881 495.498 461.881 494.873C461.881 494.247 461.432 493.745 460.874 493.745H136.292C135.733 493.745 135.284 494.247 135.284 494.873Z" fill="#CCCCCC"/>
<path d="M184.536 495.52H35.1341C16.9172 495.52 2.09644 478.938 2.09644 458.555V99.3238C2.09644 78.9419 16.9172 62.3599 35.1341 62.3599H184.536C202.753 62.3599 217.574 78.9419 217.574 99.3238V458.555C217.574 478.938 202.753 495.52 184.536 495.52Z" fill="#3F3D56"/>
<path d="M217.574 194.497C216.803 194.497 216.176 195.198 216.176 196.061V246.101C216.176 246.963 216.803 247.665 217.574 247.665C218.344 247.665 218.971 246.963 218.971 246.101V196.061C218.971 195.198 218.344 194.497 217.574 194.497Z" fill="#3F3D56"/>
<path d="M214.429 99.324V458.549C214.429 476.29 202.088 490.802 186.483 491.928H186.476C186.245 491.943 186.015 491.959 185.777 491.967C185.365 491.99 184.953 491.998 184.533 491.998C184.533 491.998 182.996 491.873 180.187 491.638C177.349 491.404 173.219 491.052 168.069 490.591C166.524 490.458 164.896 490.309 163.177 490.153C159.753 489.84 155.993 489.496 151.961 489.105C150.354 488.956 148.69 488.792 146.992 488.628C138.313 487.791 128.592 486.814 118.34 485.704C116.607 485.524 114.86 485.336 113.099 485.141C112.638 485.086 112.17 485.039 111.701 484.984C104.392 484.179 5.24146 462.74 5.24146 458.549V99.324C5.24146 80.8483 18.624 65.8754 35.1373 65.8754H52.9854C55.8366 65.8754 58.1288 68.3618 58.3734 71.544C58.3943 71.7551 58.4153 71.9662 58.4502 72.1773C58.9674 75.3752 61.588 77.6035 64.4951 77.6035H155.175C158.083 77.6035 160.703 75.3752 161.22 72.1773C161.255 71.9662 161.276 71.7551 161.297 71.544C161.542 68.3618 163.834 65.8754 166.685 65.8754H184.533C201.047 65.8754 214.429 80.8483 214.429 99.324Z" fill="white"/>
<path d="M1.39765 156.967C0.626824 156.967 0 157.668 0 158.531V171.041C0 171.903 0.626833 172.605 1.39765 172.605C2.16847 172.605 2.79531 171.903 2.79531 171.041V158.531C2.79531 157.668 2.16847 156.967 1.39765 156.967Z" fill="#3F3D56"/>
<path d="M1.39765 194.497C0.626824 194.497 0 195.198 0 196.061V220.299C0 221.161 0.626833 221.863 1.39765 221.863C2.16847 221.863 2.79531 221.161 2.79531 220.299V196.061C2.79531 195.198 2.16847 194.497 1.39765 194.497Z" fill="#3F3D56"/>
<path d="M1.39765 228.9C0.626824 228.9 0 229.601 0 230.463V254.702C0 255.564 0.626833 256.265 1.39765 256.265C2.16847 256.265 2.79531 255.564 2.79531 254.702V230.463C2.79531 229.601 2.16847 228.9 1.39765 228.9Z" fill="#3F3D56"/>
<path d="M52.4989 71.3516H25.77C25.6249 71.3516 25.5073 71.4832 25.5073 71.6455V74.9671C25.5073 75.1294 25.6249 75.261 25.77 75.261H52.4989C52.644 75.261 52.7616 75.1294 52.7616 74.9671V71.6455C52.7616 71.4832 52.644 71.3516 52.4989 71.3516Z" fill="#E6E6E6"/>
<path d="M171.101 75.261C172.645 75.261 173.897 73.8607 173.897 72.1335C173.897 70.4062 172.645 69.006 171.101 69.006C169.558 69.006 168.306 70.4062 168.306 72.1335C168.306 73.8607 169.558 75.261 171.101 75.261Z" fill="#E6E6E6"/>
<path d="M178.789 75.261C180.332 75.261 181.584 73.8607 181.584 72.1335C181.584 70.4062 180.332 69.006 178.789 69.006C177.245 69.006 175.993 70.4062 175.993 72.1335C175.993 73.8607 177.245 75.261 178.789 75.261Z" fill="#E6E6E6"/>
<path d="M186.476 75.261C188.02 75.261 189.271 73.8607 189.271 72.1335C189.271 70.4062 188.02 69.006 186.476 69.006C184.932 69.006 183.68 70.4062 183.68 72.1335C183.68 73.8607 184.932 75.261 186.476 75.261Z" fill="#E6E6E6"/>
<path d="M168.764 282.834H50.2074C48.3396 282.834 46.8201 281.134 46.8201 279.044C46.8201 276.955 48.3396 275.254 50.2074 275.254H168.764C170.632 275.254 172.151 276.955 172.151 279.044C172.151 281.134 170.632 282.834 168.764 282.834Z" fill="#E6E6E6"/>
<path d="M109.911 429.692C137.037 429.692 159.027 405.088 159.027 374.739C159.027 344.389 137.037 319.785 109.911 319.785C82.7848 319.785 60.7947 344.389 60.7947 374.739C60.7947 405.088 82.7848 429.692 109.911 429.692Z" fill="#3751FF"/>
<path d="M117.717 356.796C113.572 356.986 108.886 357.305 105.822 360.863C103.16 363.955 102.577 368.543 105.276 371.843C107.982 375.153 112.19 375.601 115.31 378.182C118.973 381.214 118.436 387.211 114.891 390.084C110.711 393.472 105.314 391.892 101.493 388.669C100.514 387.843 99.5632 389.693 100.531 390.51C103.955 393.398 108.423 395.005 112.656 393.624C116.476 392.376 119.438 388.891 119.739 384.357C119.883 382.194 119.333 379.998 118.13 378.289C116.861 376.486 115.033 375.377 113.184 374.474C110.002 372.919 104.524 370.908 105.449 365.848C106.57 359.714 113.243 359.133 117.717 358.927C118.939 358.871 118.945 356.739 117.717 356.796L117.717 356.796Z" fill="white"/>
<path d="M110.027 353.894L109.844 400.693C109.839 402.065 111.744 402.067 111.75 400.693L111.932 353.894C111.938 352.522 110.032 352.521 110.027 353.894Z" fill="white"/>
<path d="M370.138 0H127.978C119.095 0 111.871 8.08187 111.871 18.0208V203.687C111.871 213.626 119.095 221.708 127.978 221.708H370.138C379.021 221.708 386.245 213.626 386.245 203.687V18.0208C386.245 8.08187 379.021 0 370.138 0Z" fill="white"/>
<path d="M247.944 110.395C262.91 110.395 275.043 96.8207 275.043 80.076C275.043 63.3313 262.91 49.757 247.944 49.757C232.978 49.757 220.846 63.3313 220.846 80.076C220.846 96.8207 232.978 110.395 247.944 110.395Z" fill="#3751FF"/>
<path d="M253.085 66.5462C249.731 66.7009 245.954 66.9388 243.417 69.7317C241.315 72.0453 240.58 75.6468 242.511 78.3708C244.545 81.2388 247.927 81.783 250.581 83.6158C252.231 84.7548 253.325 86.4805 253.36 88.6982C253.393 90.7745 252.537 92.7143 251.105 94.0156C247.592 97.2083 242.802 95.8867 239.479 93.0945C238.825 92.5451 238.191 93.7784 238.838 94.3216C241.59 96.6342 245.134 97.9773 248.558 96.9823C251.711 96.0664 254.25 93.2918 254.592 89.5843C254.952 85.6767 252.658 83.016 249.685 81.4896C246.967 80.0944 242.2 78.6078 242.649 74.2733C243.22 68.7622 249.25 68.1442 253.085 67.9674C253.899 67.9298 253.904 66.5084 253.085 66.5462V66.5462Z" fill="white"/>
<path d="M247.256 63.969L247.103 102.965C247.1 103.88 248.37 103.881 248.374 102.965L248.526 63.969C248.529 63.0544 247.259 63.0532 247.256 63.969Z" fill="white"/>
<path d="M370.138 0H127.978C119.095 0 111.871 8.08187 111.871 18.0208V203.687C111.871 213.626 119.095 221.708 127.978 221.708H370.138C379.021 221.708 386.245 213.626 386.245 203.687V18.0208C386.245 8.08187 379.021 0 370.138 0ZM384.551 203.687C384.551 212.583 378.09 219.813 370.138 219.813H127.978C120.026 219.813 113.565 212.583 113.565 203.687V18.0208C113.565 9.12413 120.026 1.89494 127.978 1.89494H370.138C378.09 1.89494 384.551 9.12412 384.551 18.0208V203.687Z" fill="#3F3D56"/>
<path d="M221.138 18.3335H197.376C196.182 18.3335 195.208 19.4231 195.208 20.759C195.208 22.1044 196.182 23.194 197.376 23.194H221.138C222.332 23.194 223.306 22.1044 223.306 20.759C223.306 19.4231 222.332 18.3335 221.138 18.3335Z" fill="#E6E6E6"/>
<path d="M260.939 18.3335H237.177C235.983 18.3335 235.009 19.4231 235.009 20.759C235.009 22.1044 235.983 23.194 237.177 23.194H260.939C262.133 23.194 263.107 22.1044 263.107 20.759C263.107 19.4231 262.133 18.3335 260.939 18.3335Z" fill="#E6E6E6"/>
<path d="M300.74 18.3335H276.978C275.784 18.3335 274.81 19.4231 274.81 20.759C274.81 22.1044 275.784 23.194 276.978 23.194H300.74C301.934 23.194 302.908 22.1044 302.908 20.759C302.908 19.4231 301.934 18.3335 300.74 18.3335Z" fill="#E6E6E6"/>
<path d="M339.931 127.449H158.184C150.622 127.449 144.474 134.328 144.474 142.789V156.641C144.474 165.102 150.622 171.98 158.184 171.98H339.931C347.494 171.98 353.642 165.102 353.642 156.641V142.789C353.642 134.328 347.494 127.449 339.931 127.449Z" fill="#3751FF"/>
<path d="M61.9706 200.382L55.0012 196.688C57.8597 201.151 60.3229 208.122 61.6415 213.669C63.8742 208.502 67.4734 202.18 71.0361 198.403L63.6702 200.524C68.209 175.635 85.2806 157.768 104.83 157.768V155.873C84.4102 155.873 66.6048 174.489 61.9706 200.382Z" fill="#3F3D56"/>
<path d="M94.0478 238.303H50.0126C48.1448 238.303 46.6252 236.603 46.6252 234.513C46.6252 232.424 48.1448 230.723 50.0126 230.723H94.0478C95.9155 230.723 97.4351 232.424 97.4351 234.513C97.4351 236.603 95.9155 238.303 94.0478 238.303Z" fill="#E6E6E6"/>
<path d="M386.984 225.96L386.54 264.653L377.935 299.146L371.056 296.275L374.11 264.659L373.709 221.874L386.984 225.96Z" fill="#FFB6B6"/>
<path d="M377.905 304.708C378.712 299.748 377.233 295.293 374.601 294.757C371.969 294.221 369.181 297.807 368.374 302.767C367.566 307.726 369.046 312.182 371.678 312.718C374.31 313.254 377.098 309.668 377.905 304.708Z" fill="#FFB6B6"/>
<path d="M376.542 179.888C376.542 179.888 391.283 180.115 391.27 188.876C391.263 193.822 390.314 238.734 387.672 266.018C385.634 287.058 381.744 292.547 381.744 292.547L372.429 268.861L376.542 179.888Z" fill="#E6E6E6"/>
<path d="M376.163 258.942H326.38C330.553 248.524 333.118 238.602 329.108 230.71L376.163 227.658C373.811 238.312 373.524 248.768 376.163 258.942Z" fill="#FFB6B6"/>
<path d="M370.025 166.618L350.248 165.092L342.065 176.537L337.916 177.381C331.697 178.646 327.269 184.855 327.547 191.921L329.16 232.958L376.431 236.814L387.756 183.375L374.117 177.3L370.025 166.618V166.618Z" fill="#E6E6E6"/>
<path d="M249.418 178.997C250.821 180.41 251.823 182.059 252.352 183.659L266.478 196.169L260.961 203.515L247.226 190.035C245.748 189.615 244.176 188.674 242.773 187.262C239.567 184.036 238.456 179.57 240.291 177.288C242.126 175.006 246.212 175.771 249.418 178.997L249.418 178.997Z" fill="#FFB6B6"/>
<path d="M349.29 189.528V189.528L295.164 230.42L256.365 200.211L262.19 188.406L292.727 208.262L320.888 184.069C330.916 173.53 343.485 175.573 349.29 189.528H349.29Z" fill="#E6E6E6"/>
<path d="M358.964 161.665C367.067 161.665 373.636 154.315 373.636 145.249C373.636 136.183 367.067 128.833 358.964 128.833C350.861 128.833 344.292 136.183 344.292 145.249C344.292 154.315 350.861 161.665 358.964 161.665Z" fill="#FFB6B6"/>
<path d="M378.907 141.216V144.4L362.36 139.189L349.954 142.097C349.81 139.984 349.251 137.909 348.319 136.071C348.968 139.019 349.04 141.3 348.353 142.476L346.685 142.865C346.414 142.04 345.889 141.32 345.203 140.884C345.135 140.837 345.051 140.799 344.974 140.828C344.856 140.875 344.847 141.045 344.847 141.178C344.864 141.879 344.881 142.58 344.907 143.282L340.114 144.4V141.216C335.515 129.64 347.635 119.623 359.514 119.519C364.875 119.472 369.719 121.945 373.233 125.867C376.739 129.799 378.907 135.219 378.907 141.216Z" fill="#2F2E41"/>
<path d="M388.216 178.545L386.966 178.429C387.055 177.972 387.144 177.52 387.225 177.063C387.918 173.226 386.393 168.342 386.281 164.656C385.693 168.55 386.699 173.342 385.658 177.04C385.542 177.451 381.021 180.103 380.897 180.508C375.893 178.46 370.681 171.918 364.78 175.739C361.29 177.999 357.308 177.008 353.346 175.974C352.365 175.717 352.229 170.298 351.258 170.085C349.519 169.704 346.966 174.63 345.33 174.823L352.105 145.451C352.105 129.473 350.782 112.709 368.872 118.359C373.422 119.78 377.925 120.894 381.283 125.095C384.641 129.302 387.032 135.182 387.879 141.878C388.39 145.917 391.577 159.633 388.216 178.545Z" fill="#2F2E41"/>
<path d="M376.534 473.905L368.458 474.118L363.956 433.525L375.874 433.209L376.534 473.905Z" fill="#FFB7B7"/>
<path d="M348.826 492.756C348.826 494.282 349.794 495.52 350.989 495.52H367.019C367.019 495.52 368.596 488.425 375.028 485.372L375.472 495.52H383.741L382.739 479.203C382.739 479.203 384.951 470.473 380.357 466.01C375.763 461.548 379.484 462.169 379.484 462.169L377.677 452.07L365.181 453.714L365.089 469.567L359.025 485.303L350.131 490.219C349.339 490.657 348.826 491.654 348.826 492.756H348.826H348.826Z" fill="#2F2E41"/>
<path d="M351.964 467.29L344.201 469.789L330.64 431.802L342.096 428.113L351.964 467.29Z" fill="#FFB7B7"/>
<path d="M329.439 493.39C329.785 494.867 331.002 495.789 332.158 495.449L347.663 490.898C347.663 490.898 347.579 483.588 353.108 478.809L355.839 488.498L363.838 486.151L359.168 470.652C359.168 470.652 359.327 461.58 353.872 458.568C348.416 455.556 352.156 455.1 352.156 455.1L348.117 445.845L336.404 450.983L339.91 466.343L337.614 483.286L330.125 490.566C329.459 491.214 329.189 492.324 329.439 493.39L329.439 493.39L329.439 493.39Z" fill="#2F2E41"/>
<path d="M371.582 256.544L376.663 258.439C384.607 274.854 387.975 296.654 387.529 322.94L378.503 441.006H363.737L352.931 309.477L333.878 358.844L347.819 441.006L333.878 442.596L305.799 357.161L325.354 257.865L371.582 256.544Z" fill="#2F2E41"/>
</g>
<defs>
<clipPath id="clip0_7081_184">
<rect width="462" height="496" fill="white"/>
</clipPath>
</defs>
</svg>
