<svg width="156" height="153" viewBox="0 0 156 153" fill="none" xmlns="http://www.w3.org/2000/svg">
<path d="M78 153C121.078 153 156 118.75 156 76.5C156 34.2502 121.078 0 78 0C34.9218 0 0 34.2502 0 76.5C0 118.75 34.9218 153 78 153Z" fill="white"/>
<path d="M93.4817 42.0019C83.6663 42.394 72.6161 42.9972 65.1909 50.0773C59.0403 55.9422 56.8896 65.0722 62.5413 71.9775C68.4918 79.2479 78.388 80.6275 86.156 85.2736C90.9838 88.1612 94.1831 92.5358 94.2869 98.1577C94.384 103.421 91.878 108.339 87.6884 111.637C77.4092 119.731 63.3915 116.381 53.667 109.302C51.7536 107.91 49.899 111.036 51.7909 112.413C59.8448 118.275 70.2145 121.68 80.236 119.158C89.4606 116.836 96.8916 109.803 97.891 100.404C98.9442 90.4982 92.2338 83.7532 83.5324 79.8837C75.5789 76.3468 61.6286 72.5783 62.9437 61.5902C64.6158 47.6195 82.2612 46.0529 93.4817 45.6046C95.8652 45.5094 95.8776 41.9062 93.4817 42.0019V42.0019Z" fill="#3751FF"/>
<path d="M76.4282 35.7344L76 134.266C75.99 136.577 79.5617 136.58 79.5718 134.266L80 35.7344C80.01 33.4234 76.4383 33.4204 76.4282 35.7344Z" fill="#3751FF"/>
</svg>
